# xmcd
#
# Track frame offsets:
#	150
#	19034
#	39351
#	58913
#	78583
#	98209
#	111913
#	129015
#	146528
#	162551
#
# Disc length: 2394 seconds
#
# Revision: 1
# Processed by: cddbd v1.5.2PL0 Copyright (c) Steve Scherf et al.
# Submitted via: audiograbber 1.83.01
#
DISCID=8009580a
DTITLE=Magazin - Magazin - Dueti 1985 - 2005
DYEAR=2005
DGENRE=Pop
TTITLE0=Samo Navika Feat. Oliver Dragojevic
TTITLE1=Sudnji Dan Feat. Doris Dragovic
TTITLE2=Zar Je Ljubav Spala Na To Feat. Tifa
TTITLE3=Dani Su Bez Broja Feat. Esma Redzepova
TTITLE4=Simpatija Feat. Marija Bubic
TTITLE5=Nostalgija Feat. Lidija Horvat
TTITLE6=Romantika Feat. Ervin Baucic
TTITLE7=Nazaret Feat. Ervin Baucic
TTITLE8=Lepoglava Feat. Miroslav Skoro and Djordje Novkovic
TTITLE9=Sve Je Plavo Feat. Mato Dosen
EXTD=
EXTT0=
EXTT1=
EXTT2=
EXTT3=
EXTT4=
EXTT5=
EXTT6=
EXTT7=
EXTT8=
EXTT9=
PLAYORDER=
